<?xml version="1.0" standalone="no"?>
<!DOCTYPE svg PUBLIC "-//W3C//DTD SVG 20010904//EN"
 "http://www.w3.org/TR/2001/REC-SVG-20010904/DTD/svg10.dtd">
<svg version="1.0" xmlns="http://www.w3.org/2000/svg"
 width="96.000000pt" height="82.000000pt" viewBox="0 0 96.000000 82.000000"
 preserveAspectRatio="xMidYMid meet">

<g transform="translate(0.000000,82.000000) scale(0.100000,-0.100000)"
fill="#000000" stroke="none">
<path d="M420 793 c-34 -23 -371 -315 -391 -339 -54 -63 -11 -164 70 -164 18
0 19 -9 23 -109 3 -121 12 -141 75 -167 46 -20 510 -20 556 0 63 26 72 46 75
167 4 100 5 109 23 109 40 0 78 29 90 69 10 34 9 44 -7 74 -18 33 -363 340
-411 365 -31 17 -75 15 -103 -5z m263 -169 c221 -190 227 -196 227 -238 0 -41
-14 -54 -65 -58 l-40 -3 -5 -117 c-5 -106 -7 -119 -29 -142 l-24 -26 -272 0
-272 0 -24 26 c-22 23 -24 36 -29 142 l-5 117 -40 3 c-22 2 -45 8 -52 14 -16
13 -16 68 0 88 19 25 380 336 397 343 36 14 60 -1 233 -149z"/>
<path d="M417 584 c-4 -4 -7 -19 -7 -33 0 -34 -48 -58 -80 -41 -26 14 -32 10
-66 -47 l-27 -47 26 -20 c33 -26 32 -70 -2 -95 l-24 -18 28 -52 c28 -50 50
-62 72 -40 19 19 73 -20 73 -53 0 -28 1 -28 65 -28 64 0 65 0 65 28 0 33 54
72 73 53 21 -21 42 -11 70 34 33 55 33 59 6 77 -14 8 -23 26 -24 47 -2 26 2
35 21 43 30 14 30 19 -2 74 -32 54 -38 58 -64 42 -28 -18 -73 10 -80 49 -5 26
-9 28 -60 31 -31 2 -59 0 -63 -4z m93 -57 c0 -31 79 -74 109 -58 18 10 22 7
36 -18 14 -28 14 -31 -5 -41 -16 -9 -20 -21 -20 -65 0 -45 3 -55 20 -60 24 -8
25 -13 1 -44 -14 -19 -22 -21 -37 -13 -28 15 -104 -31 -104 -64 0 -21 -5 -24
-35 -24 -30 0 -35 3 -35 24 0 33 -76 79 -104 64 -15 -8 -23 -6 -37 13 -18 23
-18 24 1 41 29 24 29 113 0 128 -19 10 -19 13 -5 41 14 26 18 28 37 18 31 -16
108 25 108 58 0 20 5 23 35 23 30 0 35 -3 35 -23z"/>
<path d="M450 433 c-62 -23 -81 -103 -35 -148 55 -56 145 -16 145 63 0 57 -61
104 -110 85z m65 -49 c23 -24 15 -66 -16 -83 -24 -13 -29 -13 -53 2 -30 20
-35 57 -10 81 20 21 58 20 79 0z"/>
</g>
</svg>
